<?xml version="1.0" encoding="UTF-8" standalone="no"?>
<!DOCTYPE svg PUBLIC "-//W3C//DTD SVG 1.1//EN"
 "http://www.w3.org/Graphics/SVG/1.1/DTD/svg11.dtd">
<!-- Generated by graphviz version 12.1.0 (0)
 -->
<!-- Pages: 1 -->
<svg width="2273pt" height="490pt"
 viewBox="0.00 0.00 2272.83 490.25" xmlns="http://www.w3.org/2000/svg" xmlns:xlink="http://www.w3.org/1999/xlink">
<g id="graph0" class="graph" transform="scale(1 1) rotate(0) translate(4 486.25)">
<polygon fill="white" stroke="none" points="-4,4 -4,-486.25 2268.83,-486.25 2268.83,4 -4,4"/>
<!-- 0 -->
<g id="node1" class="node">
<title>0</title>
<ellipse fill="none" stroke="black" cx="1665.57" cy="-196.5" rx="58.57" ry="18"/>
<text text-anchor="middle" x="1665.57" y="-191.82" font-family="Times,serif" font-size="14.00">&quot;419214&quot;</text>
</g>
<!-- 1 -->
<g id="node2" class="node">
<title>1</title>
<ellipse fill="none" stroke="black" cx="1891.57" cy="-107.25" rx="52.26" ry="18"/>
<text text-anchor="middle" x="1891.57" y="-102.58" font-family="Times,serif" font-size="14.00">&quot;78455&quot;</text>
</g>
<!-- 0&#45;&#45;1 -->
<g id="edge1" class="edge">
<title>0&#45;&#45;1</title>
<path fill="none" stroke="black" d="M1701.13,-181.77C1744.02,-165.21 1815.58,-137.59 1857.7,-121.33"/>
<text text-anchor="middle" x="1807.82" y="-147.2" font-family="Times,serif" font-size="14.00">20</text>
</g>
<!-- 14 -->
<g id="node15" class="node">
<title>14</title>
<ellipse fill="none" stroke="black" cx="1752.57" cy="-107.25" rx="58.57" ry="18"/>
<text text-anchor="middle" x="1752.57" y="-102.58" font-family="Times,serif" font-size="14.00">&quot;473664&quot;</text>
</g>
<!-- 0&#45;&#45;14 -->
<g id="edge9" class="edge">
<title>0&#45;&#45;14</title>
<path fill="none" stroke="black" d="M1681.94,-179.09C1697.39,-163.59 1720.46,-140.46 1735.99,-124.88"/>
<text text-anchor="middle" x="1725.87" y="-147.2" font-family="Times,serif" font-size="14.00">39</text>
</g>
<!-- 15 -->
<g id="node16" class="node">
<title>15</title>
<ellipse fill="none" stroke="black" cx="1426.57" cy="-107.25" rx="58.57" ry="18"/>
<text text-anchor="middle" x="1426.57" y="-102.58" font-family="Times,serif" font-size="14.00">&quot;489227&quot;</text>
</g>
<!-- 0&#45;&#45;15 -->
<g id="edge44" class="edge">
<title>0&#45;&#45;15</title>
<path fill="none" stroke="black" d="M1628.75,-182.06C1583.71,-165.61 1507.93,-137.95 1463.04,-121.56"/>
<text text-anchor="middle" x="1571.98" y="-147.2" font-family="Times,serif" font-size="14.00">1</text>
</g>
<!-- 28 -->
<g id="node29" class="node">
<title>28</title>
<ellipse fill="none" stroke="black" cx="1617.57" cy="-107.25" rx="58.57" ry="18"/>
<text text-anchor="middle" x="1617.57" y="-102.58" font-family="Times,serif" font-size="14.00">&quot;488384&quot;</text>
</g>
<!-- 0&#45;&#45;28 -->
<g id="edge25" class="edge">
<title>0&#45;&#45;28</title>
<path fill="none" stroke="black" d="M1656.09,-178.26C1647.68,-162.97 1635.45,-140.74 1627.04,-125.45"/>
<text text-anchor="middle" x="1654.87" y="-147.2" font-family="Times,serif" font-size="14.00">10</text>
</g>
<!-- 2 -->
<g id="node3" class="node">
<title>2</title>
<ellipse fill="none" stroke="black" cx="1316.57" cy="-375" rx="58.57" ry="18"/>
<text text-anchor="middle" x="1316.57" y="-370.32" font-family="Times,serif" font-size="14.00">&quot;232354&quot;</text>
</g>
<!-- 3 -->
<g id="node4" class="node">
<title>3</title>
<ellipse fill="none" stroke="black" cx="1403.57" cy="-285.75" rx="58.57" ry="18"/>
<text text-anchor="middle" x="1403.57" y="-281.07" font-family="Times,serif" font-size="14.00">&quot;252761&quot;</text>
</g>
<!-- 2&#45;&#45;3 -->
<g id="edge2" class="edge">
<title>2&#45;&#45;3</title>
<path fill="none" stroke="black" d="M1332.94,-357.59C1348.39,-342.09 1371.46,-318.96 1386.99,-303.38"/>
<text text-anchor="middle" x="1372.37" y="-325.7" font-family="Times,serif" font-size="14.00">1</text>
</g>
<!-- 6 -->
<g id="node7" class="node">
<title>6</title>
<ellipse fill="none" stroke="black" cx="1031.57" cy="-285.75" rx="58.57" ry="18"/>
<text text-anchor="middle" x="1031.57" y="-281.07" font-family="Times,serif" font-size="14.00">&quot;547243&quot;</text>
</g>
<!-- 2&#45;&#45;6 -->
<g id="edge4" class="edge">
<title>2&#45;&#45;6</title>
<path fill="none" stroke="black" d="M1276.04,-361.59C1221.79,-344.98 1126.14,-315.7 1071.96,-299.12"/>
<text text-anchor="middle" x="1204.1" y="-325.7" font-family="Times,serif" font-size="14.00">1</text>
</g>
<!-- 8 -->
<g id="node9" class="node">
<title>8</title>
<ellipse fill="none" stroke="black" cx="58.57" cy="-285.75" rx="58.57" ry="18"/>
<text text-anchor="middle" x="58.57" y="-281.07" font-family="Times,serif" font-size="14.00">&quot;340686&quot;</text>
</g>
<!-- 2&#45;&#45;8 -->
<g id="edge23" class="edge">
<title>2&#45;&#45;8</title>
<path fill="none" stroke="black" d="M1267.01,-364.99C1247.88,-361.89 1225.77,-358.75 1205.57,-357 1111.02,-348.8 441.29,-369.96 351.57,-339 339.49,-334.83 340.51,-326.32 328.57,-321.75 244,-289.34 214.87,-318.94 125.57,-303.75 117.53,-302.38 109.03,-300.54 100.89,-298.58"/>
<text text-anchor="middle" x="356.07" y="-325.7" font-family="Times,serif" font-size="14.00">1</text>
</g>
<!-- 12 -->
<g id="node13" class="node">
<title>12</title>
<ellipse fill="none" stroke="black" cx="1229.57" cy="-107.25" rx="58.57" ry="18"/>
<text text-anchor="middle" x="1229.57" y="-102.58" font-family="Times,serif" font-size="14.00">&quot;403189&quot;</text>
</g>
<!-- 2&#45;&#45;12 -->
<g id="edge24" class="edge">
<title>2&#45;&#45;12</title>
<path fill="none" stroke="black" d="M1318.58,-356.54C1321.88,-321.12 1325.55,-239.01 1297.57,-178.5 1287.39,-156.47 1267.36,-137.13 1251.67,-124.35"/>
<text text-anchor="middle" x="1321.55" y="-236.45" font-family="Times,serif" font-size="14.00">2</text>
</g>
<!-- 2&#45;&#45;14 -->
<g id="edge46" class="edge">
<title>2&#45;&#45;14</title>
<path fill="none" stroke="black" d="M1375.43,-374.22C1430.49,-372.59 1514.15,-365.36 1581.57,-339 1625.24,-321.93 1730.02,-220.79 1733.57,-214.5 1749.53,-186.28 1752.59,-147.68 1752.91,-125.61"/>
<text text-anchor="middle" x="1720.46" y="-236.45" font-family="Times,serif" font-size="14.00">2</text>
</g>
<!-- 2&#45;&#45;15 -->
<g id="edge40" class="edge">
<title>2&#45;&#45;15</title>
<path fill="none" stroke="black" d="M1367.51,-365.68C1403.32,-356.89 1448.76,-339.13 1471.57,-303.75 1508.85,-245.94 1461.82,-160.97 1438.39,-125.15"/>
<text text-anchor="middle" x="1489.87" y="-236.45" font-family="Times,serif" font-size="14.00">4</text>
</g>
<!-- 16 -->
<g id="node17" class="node">
<title>16</title>
<ellipse fill="none" stroke="black" cx="1570.57" cy="-285.75" rx="52.26" ry="18"/>
<text text-anchor="middle" x="1570.57" y="-281.07" font-family="Times,serif" font-size="14.00">&quot;38145&quot;</text>
</g>
<!-- 2&#45;&#45;16 -->
<g id="edge14" class="edge">
<title>2&#45;&#45;16</title>
<path fill="none" stroke="black" d="M1374.32,-371.26C1433.08,-367.43 1519.16,-358.58 1545.57,-339 1556.88,-330.61 1563.3,-315.77 1566.79,-304.05"/>
<text text-anchor="middle" x="1568.36" y="-325.7" font-family="Times,serif" font-size="14.00">17</text>
</g>
<!-- 35 -->
<g id="node36" class="node">
<title>35</title>
<ellipse fill="none" stroke="black" cx="1236.57" cy="-285.75" rx="52.26" ry="18"/>
<text text-anchor="middle" x="1236.57" y="-281.07" font-family="Times,serif" font-size="14.00">&quot;35393&quot;</text>
</g>
<!-- 2&#45;&#45;35 -->
<g id="edge36" class="edge">
<title>2&#45;&#45;35</title>
<path fill="none" stroke="black" d="M1301.15,-357.18C1286.89,-341.63 1265.83,-318.66 1251.68,-303.23"/>
<text text-anchor="middle" x="1292.74" y="-325.7" font-family="Times,serif" font-size="14.00">12</text>
</g>
<!-- 4 -->
<g id="node5" class="node">
<title>4</title>
<ellipse fill="none" stroke="black" cx="761.57" cy="-196.5" rx="58.57" ry="18"/>
<text text-anchor="middle" x="761.57" y="-191.82" font-family="Times,serif" font-size="14.00">&quot;522058&quot;</text>
</g>
<!-- 23 -->
<g id="node24" class="node">
<title>23</title>
<ellipse fill="none" stroke="black" cx="761.57" cy="-107.25" rx="52.26" ry="18"/>
<text text-anchor="middle" x="761.57" y="-102.58" font-family="Times,serif" font-size="14.00">&quot;60353&quot;</text>
</g>
<!-- 4&#45;&#45;23 -->
<g id="edge18" class="edge">
<title>4&#45;&#45;23</title>
<path fill="none" stroke="black" d="M761.57,-178.26C761.57,-162.97 761.57,-140.74 761.57,-125.45"/>
<text text-anchor="middle" x="766.07" y="-147.2" font-family="Times,serif" font-size="14.00">5</text>
</g>
<!-- 31 -->
<g id="node32" class="node">
<title>31</title>
<ellipse fill="none" stroke="black" cx="1007.57" cy="-107.25" rx="58.57" ry="18"/>
<text text-anchor="middle" x="1007.57" y="-102.58" font-family="Times,serif" font-size="14.00">&quot;607917&quot;</text>
</g>
<!-- 4&#45;&#45;31 -->
<g id="edge53" class="edge">
<title>4&#45;&#45;31</title>
<path fill="none" stroke="black" d="M798.94,-182.25C845.31,-165.8 923.92,-137.92 970.26,-121.48"/>
<text text-anchor="middle" x="911.11" y="-147.2" font-family="Times,serif" font-size="14.00">5</text>
</g>
<!-- 5 -->
<g id="node6" class="node">
<title>5</title>
<ellipse fill="none" stroke="black" cx="896.57" cy="-285.75" rx="58.57" ry="18"/>
<text text-anchor="middle" x="896.57" y="-281.07" font-family="Times,serif" font-size="14.00">&quot;383702&quot;</text>
</g>
<!-- 5&#45;&#45;4 -->
<g id="edge3" class="edge">
<title>5&#45;&#45;4</title>
<path fill="none" stroke="black" d="M872.13,-268.95C847.66,-253.14 810.24,-228.95 785.84,-213.18"/>
<text text-anchor="middle" x="845.67" y="-236.45" font-family="Times,serif" font-size="14.00">4</text>
</g>
<!-- 7 -->
<g id="node8" class="node">
<title>7</title>
<ellipse fill="none" stroke="black" cx="58.57" cy="-375" rx="58.57" ry="18"/>
<text text-anchor="middle" x="58.57" y="-370.32" font-family="Times,serif" font-size="14.00">&quot;199546&quot;</text>
</g>
<!-- 7&#45;&#45;8 -->
<g id="edge5" class="edge">
<title>7&#45;&#45;8</title>
<path fill="none" stroke="black" d="M58.57,-356.76C58.57,-341.47 58.57,-319.24 58.57,-303.95"/>
<text text-anchor="middle" x="63.07" y="-325.7" font-family="Times,serif" font-size="14.00">1</text>
</g>
<!-- 9 -->
<g id="node10" class="node">
<title>9</title>
<ellipse fill="none" stroke="black" cx="296.57" cy="-18" rx="58.57" ry="18"/>
<text text-anchor="middle" x="296.57" y="-13.32" font-family="Times,serif" font-size="14.00">&quot;566723&quot;</text>
</g>
<!-- 10 -->
<g id="node11" class="node">
<title>10</title>
<ellipse fill="none" stroke="black" cx="692.57" cy="-464.25" rx="58.57" ry="18"/>
<text text-anchor="middle" x="692.57" y="-459.57" font-family="Times,serif" font-size="14.00">&quot;200148&quot;</text>
</g>
<!-- 10&#45;&#45;0 -->
<g id="edge51" class="edge">
<title>10&#45;&#45;0</title>
<path fill="none" stroke="black" d="M750.82,-461.77C881.96,-458.12 1197.05,-447.59 1301.57,-428.25 1378.64,-413.99 1585.19,-366.93 1631.57,-303.75 1651.51,-276.58 1660.06,-237.26 1663.48,-214.86"/>
<text text-anchor="middle" x="1617.64" y="-325.7" font-family="Times,serif" font-size="14.00">2</text>
</g>
<!-- 10&#45;&#45;2 -->
<g id="edge42" class="edge">
<title>10&#45;&#45;2</title>
<path fill="none" stroke="black" d="M745.79,-456.25C839,-443.91 1037.88,-417.32 1205.57,-393 1225.06,-390.17 1246.45,-386.93 1265.2,-384.04"/>
<text text-anchor="middle" x="1083.5" y="-414.95" font-family="Times,serif" font-size="14.00">4</text>
</g>
<!-- 10&#45;&#45;9 -->
<g id="edge6" class="edge">
<title>10&#45;&#45;9</title>
<path fill="none" stroke="black" d="M633.98,-462.9C520.24,-460.63 280.57,-447.38 280.57,-376 280.57,-376 280.57,-376 280.57,-106.25 280.57,-81.61 286.82,-53.69 291.51,-36.21"/>
<text text-anchor="middle" x="285.07" y="-236.45" font-family="Times,serif" font-size="14.00">1</text>
</g>
<!-- 19 -->
<g id="node20" class="node">
<title>19</title>
<ellipse fill="none" stroke="black" cx="383.57" cy="-196.5" rx="58.57" ry="18"/>
<text text-anchor="middle" x="383.57" y="-191.82" font-family="Times,serif" font-size="14.00">&quot;467731&quot;</text>
</g>
<!-- 10&#45;&#45;19 -->
<g id="edge13" class="edge">
<title>10&#45;&#45;19</title>
<path fill="none" stroke="black" d="M633.7,-463.28C552.32,-462.26 410.7,-456.34 368.57,-428.25 325.23,-399.34 310.4,-373.04 319.57,-321.75 327.02,-280.12 330.85,-268.78 352.57,-232.5 356.49,-225.95 361.71,-219.5 366.75,-213.94"/>
<text text-anchor="middle" x="324.07" y="-325.7" font-family="Times,serif" font-size="14.00">4</text>
</g>
<!-- 11 -->
<g id="node12" class="node">
<title>11</title>
<ellipse fill="none" stroke="black" cx="1094.57" cy="-196.5" rx="58.57" ry="18"/>
<text text-anchor="middle" x="1094.57" y="-191.82" font-family="Times,serif" font-size="14.00">&quot;171458&quot;</text>
</g>
<!-- 11&#45;&#45;12 -->
<g id="edge7" class="edge">
<title>11&#45;&#45;12</title>
<path fill="none" stroke="black" d="M1119.02,-179.7C1143.49,-163.89 1180.91,-139.7 1205.31,-123.93"/>
<text text-anchor="middle" x="1178.67" y="-147.2" font-family="Times,serif" font-size="14.00">3</text>
</g>
<!-- 11&#45;&#45;31 -->
<g id="edge55" class="edge">
<title>11&#45;&#45;31</title>
<path fill="none" stroke="black" d="M1078.21,-179.09C1062.75,-163.59 1039.69,-140.46 1024.16,-124.88"/>
<text text-anchor="middle" x="1063.37" y="-147.2" font-family="Times,serif" font-size="14.00">2</text>
</g>
<!-- 13 -->
<g id="node14" class="node">
<title>13</title>
<ellipse fill="none" stroke="black" cx="626.57" cy="-285.75" rx="58.57" ry="18"/>
<text text-anchor="middle" x="626.57" y="-281.07" font-family="Times,serif" font-size="14.00">&quot;117808&quot;</text>
</g>
<!-- 13&#45;&#45;4 -->
<g id="edge8" class="edge">
<title>13&#45;&#45;4</title>
<path fill="none" stroke="black" d="M651.02,-268.95C675.49,-253.14 712.91,-228.95 737.31,-213.18"/>
<text text-anchor="middle" x="710.67" y="-236.45" font-family="Times,serif" font-size="14.00">1</text>
</g>
<!-- 15&#45;&#45;9 -->
<g id="edge10" class="edge">
<title>15&#45;&#45;9</title>
<path fill="none" stroke="black" d="M1374.56,-98.66C1351.08,-95.42 1322.97,-91.81 1297.57,-89.25 939.64,-53.14 507.84,-29.58 354.23,-21.81"/>
<text text-anchor="middle" x="1087.61" y="-57.95" font-family="Times,serif" font-size="14.00">12</text>
</g>
<!-- 16&#45;&#45;0 -->
<g id="edge11" class="edge">
<title>16&#45;&#45;0</title>
<path fill="none" stroke="black" d="M1588,-268.75C1604.92,-253.2 1630.51,-229.71 1647.61,-213.99"/>
<text text-anchor="middle" x="1631.08" y="-236.45" font-family="Times,serif" font-size="14.00">9</text>
</g>
<!-- 17 -->
<g id="node18" class="node">
<title>17</title>
<ellipse fill="none" stroke="black" cx="1813.57" cy="-375" rx="58.57" ry="18"/>
<text text-anchor="middle" x="1813.57" y="-370.32" font-family="Times,serif" font-size="14.00">&quot;246080&quot;</text>
</g>
<!-- 17&#45;&#45;1 -->
<g id="edge15" class="edge">
<title>17&#45;&#45;1</title>
<path fill="none" stroke="black" d="M1835.97,-358.03C1851.81,-345.32 1871.9,-326.01 1881.57,-303.75 1908.06,-242.82 1899.93,-160.94 1894.6,-125.64"/>
<text text-anchor="middle" x="1902.82" y="-236.45" font-family="Times,serif" font-size="14.00">3</text>
</g>
<!-- 17&#45;&#45;35 -->
<g id="edge38" class="edge">
<title>17&#45;&#45;35</title>
<path fill="none" stroke="black" d="M1763.52,-365.32C1745.87,-362.44 1725.87,-359.36 1707.57,-357 1626.08,-346.49 1604.95,-350.37 1523.57,-339 1436.8,-326.88 1336.24,-307.28 1280.15,-295.84"/>
<text text-anchor="middle" x="1532.57" y="-325.7" font-family="Times,serif" font-size="14.00">20</text>
</g>
<!-- 37 -->
<g id="node38" class="node">
<title>37</title>
<ellipse fill="none" stroke="black" cx="1813.57" cy="-285.75" rx="58.57" ry="18"/>
<text text-anchor="middle" x="1813.57" y="-281.07" font-family="Times,serif" font-size="14.00">&quot;426651&quot;</text>
</g>
<!-- 17&#45;&#45;37 -->
<g id="edge39" class="edge">
<title>17&#45;&#45;37</title>
<path fill="none" stroke="black" d="M1813.57,-356.76C1813.57,-341.47 1813.57,-319.24 1813.57,-303.95"/>
<text text-anchor="middle" x="1818.07" y="-325.7" font-family="Times,serif" font-size="14.00">9</text>
</g>
<!-- 18 -->
<g id="node19" class="node">
<title>18</title>
<ellipse fill="none" stroke="black" cx="1227.57" cy="-464.25" rx="58.57" ry="18"/>
<text text-anchor="middle" x="1227.57" y="-459.57" font-family="Times,serif" font-size="14.00">&quot;123303&quot;</text>
</g>
<!-- 18&#45;&#45;2 -->
<g id="edge56" class="edge">
<title>18&#45;&#45;2</title>
<path fill="none" stroke="black" d="M1244.31,-446.84C1260.12,-431.34 1283.72,-408.21 1299.61,-392.63"/>
<text text-anchor="middle" x="1289.05" y="-414.95" font-family="Times,serif" font-size="14.00">11</text>
</g>
<!-- 18&#45;&#45;4 -->
<g id="edge19" class="edge">
<title>18&#45;&#45;4</title>
<path fill="none" stroke="black" d="M1169.02,-462.45C996.07,-458.57 495.14,-435.93 423.57,-303.75 415.96,-289.68 413.48,-280.16 423.57,-267.75 458.32,-225.03 617.33,-207.45 704.31,-200.92"/>
<text text-anchor="middle" x="458.67" y="-325.7" font-family="Times,serif" font-size="14.00">2</text>
</g>
<!-- 18&#45;&#45;17 -->
<g id="edge12" class="edge">
<title>18&#45;&#45;17</title>
<path fill="none" stroke="black" d="M1284.77,-460.03C1356.21,-455.49 1482.01,-445.71 1588.57,-428.25 1652.68,-417.75 1725.76,-399.61 1770.77,-387.71"/>
<text text-anchor="middle" x="1684.73" y="-414.95" font-family="Times,serif" font-size="14.00">16</text>
</g>
<!-- 18&#45;&#45;19 -->
<g id="edge29" class="edge">
<title>18&#45;&#45;19</title>
<path fill="none" stroke="black" d="M1168.84,-462.61C1063.79,-460.83 836.99,-454.05 647.57,-428.25 573.27,-418.13 548.78,-428.21 482.57,-393 452.05,-376.76 445.83,-367.71 426.57,-339 399.97,-299.34 389.33,-242.61 385.49,-214.56"/>
<text text-anchor="middle" x="431.07" y="-325.7" font-family="Times,serif" font-size="14.00">2</text>
</g>
<!-- 24 -->
<g id="node25" class="node">
<title>24</title>
<ellipse fill="none" stroke="black" cx="1639.57" cy="-375" rx="58.57" ry="18"/>
<text text-anchor="middle" x="1639.57" y="-370.32" font-family="Times,serif" font-size="14.00">&quot;483063&quot;</text>
</g>
<!-- 18&#45;&#45;24 -->
<g id="edge20" class="edge">
<title>18&#45;&#45;24</title>
<path fill="none" stroke="black" d="M1286.07,-462.4C1348.33,-460.14 1449.18,-452.61 1532.57,-428.25 1561.94,-419.67 1593.12,-403.55 1614.19,-391.47"/>
<text text-anchor="middle" x="1579.66" y="-414.95" font-family="Times,serif" font-size="14.00">1</text>
</g>
<!-- 30 -->
<g id="node31" class="node">
<title>30</title>
<ellipse fill="none" stroke="black" cx="1137.57" cy="-375" rx="58.57" ry="18"/>
<text text-anchor="middle" x="1137.57" y="-370.32" font-family="Times,serif" font-size="14.00">&quot;227520&quot;</text>
</g>
<!-- 18&#45;&#45;30 -->
<g id="edge30" class="edge">
<title>18&#45;&#45;30</title>
<path fill="none" stroke="black" d="M1210.65,-446.84C1194.66,-431.34 1170.8,-408.21 1154.73,-392.63"/>
<text text-anchor="middle" x="1195.13" y="-414.95" font-family="Times,serif" font-size="14.00">1</text>
</g>
<!-- 19&#45;&#45;31 -->
<g id="edge28" class="edge">
<title>19&#45;&#45;31</title>
<path fill="none" stroke="black" d="M441.19,-192.81C517.72,-188.68 656.95,-179.2 774.57,-160.5 808.35,-155.13 816.21,-150.78 849.57,-143.25 886.98,-134.8 929.42,-125.41 960.89,-118.49"/>
<text text-anchor="middle" x="854.07" y="-147.2" font-family="Times,serif" font-size="14.00">1</text>
</g>
<!-- 34 -->
<g id="node35" class="node">
<title>34</title>
<ellipse fill="none" stroke="black" cx="383.57" cy="-107.25" rx="58.57" ry="18"/>
<text text-anchor="middle" x="383.57" y="-102.58" font-family="Times,serif" font-size="14.00">&quot;598790&quot;</text>
</g>
<!-- 19&#45;&#45;34 -->
<g id="edge34" class="edge">
<title>19&#45;&#45;34</title>
<path fill="none" stroke="black" d="M383.57,-178.26C383.57,-162.97 383.57,-140.74 383.57,-125.45"/>
<text text-anchor="middle" x="392.57" y="-147.2" font-family="Times,serif" font-size="14.00">11</text>
</g>
<!-- 20 -->
<g id="node21" class="node">
<title>20</title>
<ellipse fill="none" stroke="black" cx="193.57" cy="-375" rx="58.57" ry="18"/>
<text text-anchor="middle" x="193.57" y="-370.32" font-family="Times,serif" font-size="14.00">&quot;215214&quot;</text>
</g>
<!-- 20&#45;&#45;6 -->
<g id="edge16" class="edge">
<title>20&#45;&#45;6</title>
<path fill="none" stroke="black" d="M246.83,-367.02C332.72,-355.99 507.19,-334.45 655.57,-321.75 792.64,-310.02 828.62,-324.76 964.57,-303.75 972.76,-302.49 981.4,-300.67 989.65,-298.69"/>
<text text-anchor="middle" x="660.07" y="-325.7" font-family="Times,serif" font-size="14.00">1</text>
</g>
<!-- 20&#45;&#45;8 -->
<g id="edge32" class="edge">
<title>20&#45;&#45;8</title>
<path fill="none" stroke="black" d="M169.13,-358.2C144.66,-342.39 107.24,-318.2 82.84,-302.43"/>
<text text-anchor="middle" x="142.67" y="-325.7" font-family="Times,serif" font-size="14.00">3</text>
</g>
<!-- 40 -->
<g id="node41" class="node">
<title>40</title>
<ellipse fill="none" stroke="black" cx="193.57" cy="-285.75" rx="58.57" ry="18"/>
<text text-anchor="middle" x="193.57" y="-281.07" font-family="Times,serif" font-size="14.00">&quot;360192&quot;</text>
</g>
<!-- 20&#45;&#45;40 -->
<g id="edge54" class="edge">
<title>20&#45;&#45;40</title>
<path fill="none" stroke="black" d="M193.57,-356.76C193.57,-341.47 193.57,-319.24 193.57,-303.95"/>
<text text-anchor="middle" x="198.07" y="-325.7" font-family="Times,serif" font-size="14.00">2</text>
</g>
<!-- 21 -->
<g id="node22" class="node">
<title>21</title>
<ellipse fill="none" stroke="black" cx="2147.57" cy="-464.25" rx="58.57" ry="18"/>
<text text-anchor="middle" x="2147.57" y="-459.57" font-family="Times,serif" font-size="14.00">&quot;106502&quot;</text>
</g>
<!-- 22 -->
<g id="node23" class="node">
<title>22</title>
<ellipse fill="none" stroke="black" cx="2083.57" cy="-375" rx="58.57" ry="18"/>
<text text-anchor="middle" x="2083.57" y="-370.32" font-family="Times,serif" font-size="14.00">&quot;274689&quot;</text>
</g>
<!-- 21&#45;&#45;22 -->
<g id="edge17" class="edge">
<title>21&#45;&#45;22</title>
<path fill="none" stroke="black" d="M2135.23,-446.43C2123.97,-431.08 2107.41,-408.5 2096.09,-393.07"/>
<text text-anchor="middle" x="2130.31" y="-414.95" font-family="Times,serif" font-size="14.00">45</text>
</g>
<!-- 39 -->
<g id="node40" class="node">
<title>39</title>
<ellipse fill="none" stroke="black" cx="2212.57" cy="-375" rx="52.26" ry="18"/>
<text text-anchor="middle" x="2212.57" y="-370.32" font-family="Times,serif" font-size="14.00">&quot;66612&quot;</text>
</g>
<!-- 21&#45;&#45;39 -->
<g id="edge52" class="edge">
<title>21&#45;&#45;39</title>
<path fill="none" stroke="black" d="M2160.11,-446.43C2171.62,-430.98 2188.58,-408.2 2200.08,-392.77"/>
<text text-anchor="middle" x="2194.9" y="-414.95" font-family="Times,serif" font-size="14.00">41</text>
</g>
<!-- 25 -->
<g id="node26" class="node">
<title>25</title>
<ellipse fill="none" stroke="black" cx="1948.57" cy="-375" rx="58.57" ry="18"/>
<text text-anchor="middle" x="1948.57" y="-370.32" font-family="Times,serif" font-size="14.00">&quot;493466&quot;</text>
</g>
<!-- 26 -->
<g id="node27" class="node">
<title>26</title>
<ellipse fill="none" stroke="black" cx="1905.57" cy="-464.25" rx="58.57" ry="18"/>
<text text-anchor="middle" x="1905.57" y="-459.57" font-family="Times,serif" font-size="14.00">&quot;158621&quot;</text>
</g>
<!-- 26&#45;&#45;17 -->
<g id="edge43" class="edge">
<title>26&#45;&#45;17</title>
<path fill="none" stroke="black" d="M1888.27,-446.84C1871.93,-431.34 1847.53,-408.21 1831.11,-392.63"/>
<text text-anchor="middle" x="1876.81" y="-414.95" font-family="Times,serif" font-size="14.00">41</text>
</g>
<!-- 26&#45;&#45;25 -->
<g id="edge21" class="edge">
<title>26&#45;&#45;25</title>
<path fill="none" stroke="black" d="M1914.07,-446.01C1921.61,-430.72 1932.56,-408.49 1940.1,-393.2"/>
<text text-anchor="middle" x="1939.92" y="-414.95" font-family="Times,serif" font-size="14.00">45</text>
</g>
<!-- 27 -->
<g id="node28" class="node">
<title>27</title>
<ellipse fill="none" stroke="black" cx="491.57" cy="-285.75" rx="58.57" ry="18"/>
<text text-anchor="middle" x="491.57" y="-281.07" font-family="Times,serif" font-size="14.00">&quot;387912&quot;</text>
</g>
<!-- 27&#45;&#45;4 -->
<g id="edge35" class="edge">
<title>27&#45;&#45;4</title>
<path fill="none" stroke="black" d="M530.83,-272.06C582.02,-255.52 671.05,-226.75 722.27,-210.2"/>
<text text-anchor="middle" x="655.26" y="-236.45" font-family="Times,serif" font-size="14.00">8</text>
</g>
<!-- 27&#45;&#45;19 -->
<g id="edge22" class="edge">
<title>27&#45;&#45;19</title>
<path fill="none" stroke="black" d="M471.51,-268.54C452.11,-252.87 422.89,-229.26 403.53,-213.62"/>
<text text-anchor="middle" x="451.75" y="-236.45" font-family="Times,serif" font-size="14.00">4</text>
</g>
<!-- 29 -->
<g id="node30" class="node">
<title>29</title>
<ellipse fill="none" stroke="black" cx="85.57" cy="-464.25" rx="58.57" ry="18"/>
<text text-anchor="middle" x="85.57" y="-459.57" font-family="Times,serif" font-size="14.00">&quot;103991&quot;</text>
</g>
<!-- 29&#45;&#45;20 -->
<g id="edge26" class="edge">
<title>29&#45;&#45;20</title>
<path fill="none" stroke="black" d="M105.63,-447.04C125.03,-431.37 154.26,-407.76 173.62,-392.12"/>
<text text-anchor="middle" x="153.75" y="-414.95" font-family="Times,serif" font-size="14.00">8</text>
</g>
<!-- 30&#45;&#45;15 -->
<g id="edge49" class="edge">
<title>30&#45;&#45;15</title>
<path fill="none" stroke="black" d="M1140.39,-356.53C1146.35,-320.57 1160.42,-240.92 1169.57,-232.5 1211.84,-193.59 1244.99,-237.63 1297.57,-214.5 1345.65,-193.36 1390.23,-149 1412.22,-124.82"/>
<text text-anchor="middle" x="1174.07" y="-236.45" font-family="Times,serif" font-size="14.00">6</text>
</g>
<!-- 30&#45;&#45;27 -->
<g id="edge27" class="edge">
<title>30&#45;&#45;27</title>
<path fill="none" stroke="black" d="M1081.32,-369.58C977.42,-360.88 748.69,-339.25 558.57,-303.75 550.67,-302.27 542.31,-300.41 534.28,-298.45"/>
<text text-anchor="middle" x="784.79" y="-325.7" font-family="Times,serif" font-size="14.00">2</text>
</g>
<!-- 30&#45;&#45;31 -->
<g id="edge47" class="edge">
<title>30&#45;&#45;31</title>
<path fill="none" stroke="black" d="M1134.66,-356.68C1130.21,-334.32 1119.99,-295.05 1099.57,-267.75 1075.53,-235.59 1047.86,-248.55 1026.57,-214.5 1009.29,-186.85 1006.72,-147.7 1006.85,-125.46"/>
<text text-anchor="middle" x="1083.48" y="-236.45" font-family="Times,serif" font-size="14.00">2</text>
</g>
<!-- 32 -->
<g id="node33" class="node">
<title>32</title>
<ellipse fill="none" stroke="black" cx="1229.57" cy="-196.5" rx="58.57" ry="18"/>
<text text-anchor="middle" x="1229.57" y="-191.82" font-family="Times,serif" font-size="14.00">&quot;180663&quot;</text>
</g>
<!-- 32&#45;&#45;12 -->
<g id="edge50" class="edge">
<title>32&#45;&#45;12</title>
<path fill="none" stroke="black" d="M1229.57,-178.26C1229.57,-162.97 1229.57,-140.74 1229.57,-125.45"/>
<text text-anchor="middle" x="1234.07" y="-147.2" font-family="Times,serif" font-size="14.00">1</text>
</g>
<!-- 32&#45;&#45;31 -->
<g id="edge31" class="edge">
<title>32&#45;&#45;31</title>
<path fill="none" stroke="black" d="M1193.28,-182.08C1176.06,-175.65 1155.21,-167.78 1136.57,-160.5 1104.28,-147.88 1067.65,-132.99 1041.7,-122.34"/>
<text text-anchor="middle" x="1141.07" y="-147.2" font-family="Times,serif" font-size="14.00">1</text>
</g>
<!-- 33 -->
<g id="node34" class="node">
<title>33</title>
<ellipse fill="none" stroke="black" cx="761.57" cy="-285.75" rx="58.57" ry="18"/>
<text text-anchor="middle" x="761.57" y="-281.07" font-family="Times,serif" font-size="14.00">&quot;341936&quot;</text>
</g>
<!-- 33&#45;&#45;4 -->
<g id="edge33" class="edge">
<title>33&#45;&#45;4</title>
<path fill="none" stroke="black" d="M761.57,-267.51C761.57,-252.22 761.57,-229.99 761.57,-214.7"/>
<text text-anchor="middle" x="770.57" y="-236.45" font-family="Times,serif" font-size="14.00">22</text>
</g>
<!-- 35&#45;&#45;4 -->
<g id="edge45" class="edge">
<title>35&#45;&#45;4</title>
<path fill="none" stroke="black" d="M1224.14,-267.95C1214.12,-255.82 1198.88,-240.26 1181.57,-232.5 1165.28,-225.19 929.52,-208.67 818.55,-201.24"/>
<text text-anchor="middle" x="1209.99" y="-236.45" font-family="Times,serif" font-size="14.00">9</text>
</g>
<!-- 36 -->
<g id="node37" class="node">
<title>36</title>
<ellipse fill="none" stroke="black" cx="1661.57" cy="-464.25" rx="58.57" ry="18"/>
<text text-anchor="middle" x="1661.57" y="-459.57" font-family="Times,serif" font-size="14.00">&quot;225895&quot;</text>
</g>
<!-- 36&#45;&#45;0 -->
<g id="edge41" class="edge">
<title>36&#45;&#45;0</title>
<path fill="none" stroke="black" d="M1676.61,-446.51C1687.58,-433.1 1701.53,-413.26 1707.57,-393 1717.56,-359.52 1729.83,-292.45 1702.57,-232.5 1699.28,-225.26 1693.73,-218.78 1687.92,-213.43"/>
<text text-anchor="middle" x="1723.54" y="-325.7" font-family="Times,serif" font-size="14.00">2</text>
</g>
<!-- 36&#45;&#45;2 -->
<g id="edge37" class="edge">
<title>36&#45;&#45;2</title>
<path fill="none" stroke="black" d="M1617.53,-452.11C1551.41,-435.39 1427.19,-403.97 1360.9,-387.21"/>
<text text-anchor="middle" x="1524.47" y="-414.95" font-family="Times,serif" font-size="14.00">3</text>
</g>
<!-- 38 -->
<g id="node39" class="node">
<title>38</title>
<ellipse fill="none" stroke="black" cx="220.57" cy="-464.25" rx="58.57" ry="18"/>
<text text-anchor="middle" x="220.57" y="-459.57" font-family="Times,serif" font-size="14.00">&quot;180806&quot;</text>
</g>
<!-- 38&#45;&#45;20 -->
<g id="edge48" class="edge">
<title>38&#45;&#45;20</title>
<path fill="none" stroke="black" d="M215.24,-446.01C210.51,-430.72 203.63,-408.49 198.9,-393.2"/>
<text text-anchor="middle" x="218.49" y="-414.95" font-family="Times,serif" font-size="14.00">17</text>
</g>
</g>
</svg>
